<svg viewBox="0 0 500 500" xmlns="http://www.w3.org/2000/svg">
<path d="M249.999 198.668L352.665 96c14.667-14.666 36.668-14.666 51.335 0 14.666 14.667 14.666 36.668 0 51.334L301.333 250 404 352.668c14.666 14.667 14.666 36.666 0 51.332-14.667 14.667-36.667 14.667-51.334 0L249.999 301.334 147.333 404c-14.668 14.667-36.666 14.667-51.334 0-14.666-14.666-14.666-36.665 0-51.332L198.666 250 95.999 147.334c-14.666-14.666-14.666-36.667 0-51.334 14.668-14.666 36.665-14.666 51.333 0l102.667 102.668z" fill="#873a18"/>
</svg>