<svg viewBox="0 0 500 500" xmlns="http://www.w3.org/2000/svg">
<path d="M472.86 249.918V361.57c-.024 61.53-49.899 111.404-111.431 111.43h-222.86c-61.529-.026-111.403-49.9-111.428-111.43V249.918a111.828 111.828 0 0 1 35.658-81.79L189.383 50.904c34.128-31.872 87.109-31.872 121.234 0l126.585 117.224a111.825 111.825 0 0 1 35.658 81.79z" fill="#c3cbd3"/>
<path d="M327.334 317.02c-.062 9.206-7.511 16.653-16.717 16.715H189.383c-12.867 0-20.908-13.93-14.475-25.073a16.718 16.718 0 0 1 14.475-8.357h121.234c9.239-.011 16.729 7.478 16.717 16.715z" fill="#202020"/>
</svg>