<svg viewBox="0 0 500 500" xmlns="http://www.w3.org/2000/svg">
<rect transform="rotate(45.001 238.211 363.575)" x="29.285" y="22.411" width="273.903" height="505.038" rx="70" ry="70" fill="#dcdcdc"/>
<path d="M218.543 249.999l-47.186 47.186c-8.987 8.988-8.987 22.47 0 31.457 8.988 8.988 22.47 8.988 31.457 0L250 281.456l15.728 15.729c17.976 17.976 17.976 46.063 0 64.038l-64.037 64.038c-17.976 17.975-46.063 17.975-64.038 0l-64.038-64.038c-17.975-17.975-17.975-46.062 0-64.038l64.038-64.037c17.975-17.976 46.062-17.976 64.038 0l16.852 16.851z" fill="#fff"/>
<path d="M281.457 249.999l47.186-47.186c8.988-8.987 8.988-22.469 0-31.457-8.987-8.987-22.469-8.987-31.457 0L250 218.542l-15.729-15.729c-17.975-17.975-17.975-46.062 0-64.037l64.038-64.038c17.975-17.975 46.062-17.975 64.038 0l64.037 64.038c17.977 17.975 17.977 46.062 0 64.037l-64.037 64.038c-17.976 17.976-46.063 17.976-64.038 0l-16.852-16.852z" fill="#61a3e0"/>
</svg>