<svg viewBox="0 0 500 500" xmlns="http://www.w3.org/2000/svg">
<path d="M186.744 40.493a15.34 15.34 0 0 1 9.956-.097 15.743 15.743 0 0 1 10.643 17.018l-.639 2.794-2.549 8.484a230.05 230.05 0 0 0 21.824 175.818c41.315 73.085 119.925 117.041 203.82 113.977l8.093-.491h2.649c11.217 1.139 18.309 12.601 14.32 23.148l-1.374 2.795-2.256 3.727-6.472 8.533a225.604 225.604 0 0 1-62.629 54.194c-107.795 63.019-245.655 25.599-307.89-83.57-62.235-109.12-25.257-248.695 82.49-311.715a219.638 219.638 0 0 1 17.755-9.319l9.022-4.07 3.286-1.226zm176.702 52.576a4.402 4.402 0 0 1 2.108 2.156l11.181 23.982c1.08 2.305 2.944 4.218 5.297 5.296l24.031 11.182c3.06 1.482 3.366 5.717.554 7.626-.176.12-.361.227-.554.32l-24.031 11.181a10.994 10.994 0 0 0-5.297 5.296l-11.181 24.031c-1.482 3.058-5.717 3.366-7.625.554a4.11 4.11 0 0 1-.32-.554l-11.23-24.031a10.998 10.998 0 0 0-5.297-5.296l-23.981-11.181c-3.06-1.482-3.367-5.717-.555-7.626.176-.12.362-.227.555-.32l24.029-11.182a10.993 10.993 0 0 0 5.249-5.296l11.23-24.031a4.412 4.412 0 0 1 5.837-2.107zm-62.825-73.812c.491.246.883.589 1.08 1.08l5.59 11.967a5.346 5.346 0 0 0 2.649 2.647l12.015 5.592c1.548.699 1.757 2.812.377 3.804-.12.084-.244.157-.377.218l-12.015 5.589a5.496 5.496 0 0 0-2.649 2.649l-5.59 11.966c-.778 1.512-2.9 1.611-3.819.182a2.694 2.694 0 0 1-.105-.182l-5.64-11.966a5.491 5.491 0 0 0-2.649-2.649l-11.966-5.64c-1.548-.699-1.757-2.814-.377-3.803.119-.085.244-.158.377-.218l11.966-5.589a5.498 5.498 0 0 0 2.649-2.65l5.591-11.965a2.205 2.205 0 0 1 2.942-1.08z" fill="#FFCB3C"/>
</svg>